<svg display="none" xmlns="http://www.w3.org/2000/svg">
    <symbol id="facebook" viewBox="0 0 29.94 29.94">
        <g>
            <path d="M27.56,0.684H2.383C1.065,0.684,0,1.748,0,3.064v23.813c0,1.312,1.065,2.379,2.383,2.379H27.56
            c1.312,0,2.38-1.066,2.38-2.379V3.064C29.939,1.748,28.871,0.684,27.56,0.684z M20.125,9.167c-0.619-0.362-1.11-0.648-1.727-0.648
            c-0.604,0-1.12,0.151-1.384,0.405c-0.264,0.252-0.395,0.74-0.395,1.461v1.067h3.229l-0.699,2.968h-2.53v9.862h-4.056V14.42H10.67
            v-2.968h1.895v-1.133c0-1.193,0.143-1.907,0.425-2.496c0.281-0.587,0.826-1.241,1.584-1.611c0.757-0.369,1.877-0.555,3.036-0.555
            c1.188,0,2.116,0.396,3.254,0.715L20.125,9.167z"/>
        </g>
    </symbol>
    <symbol id="insta" viewBox="0 0 455.73 455.73">
        <g>
		    <path d="M227.86,182.55c-24.98,0-45.32,20.33-45.32,45.31c0,24.99,20.34,45.33,45.32,45.33c24.99,0,45.32-20.34,45.32-45.33
	C273.18,202.88,252.85,182.55,227.86,182.55z M227.86,182.55c-24.98,0-45.32,20.33-45.32,45.31c0,24.99,20.34,45.33,45.32,45.33
	c24.99,0,45.32-20.34,45.32-45.33C273.18,202.88,252.85,182.55,227.86,182.55z M303.36,108.66H152.37
	c-24.1,0-43.71,19.61-43.71,43.71v150.99c0,24.1,19.61,43.71,43.71,43.71h150.99c24.1,0,43.71-19.61,43.71-43.71V152.37
	C347.07,128.27,327.46,108.66,303.36,108.66z M227.86,306.35c-43.27,0-78.48-35.21-78.48-78.49c0-43.27,35.21-78.48,78.48-78.48
	c43.28,0,78.49,35.21,78.49,78.48C306.35,271.14,271.14,306.35,227.86,306.35z M308.87,165.61c-10.24,0-18.57-8.33-18.57-18.57
	s8.33-18.57,18.57-18.57s18.57,8.33,18.57,18.57S319.11,165.61,308.87,165.61z M227.86,182.55c-24.98,0-45.32,20.33-45.32,45.31
	c0,24.99,20.34,45.33,45.32,45.33c24.99,0,45.32-20.34,45.32-45.33C273.18,202.88,252.85,182.55,227.86,182.55z M303.36,108.66
	H152.37c-24.1,0-43.71,19.61-43.71,43.71v150.99c0,24.1,19.61,43.71,43.71,43.71h150.99c24.1,0,43.71-19.61,43.71-43.71V152.37
	C347.07,128.27,327.46,108.66,303.36,108.66z M227.86,306.35c-43.27,0-78.48-35.21-78.48-78.49c0-43.27,35.21-78.48,78.48-78.48
	c43.28,0,78.49,35.21,78.49,78.48C306.35,271.14,271.14,306.35,227.86,306.35z M308.87,165.61c-10.24,0-18.57-8.33-18.57-18.57
	s8.33-18.57,18.57-18.57s18.57,8.33,18.57,18.57S319.11,165.61,308.87,165.61z M227.86,182.55c-24.98,0-45.32,20.33-45.32,45.31
	c0,24.99,20.34,45.33,45.32,45.33c24.99,0,45.32-20.34,45.32-45.33C273.18,202.88,252.85,182.55,227.86,182.55z M0,0v455.73h455.73
	V0H0z M380.23,303.36c0,42.39-34.48,76.87-76.87,76.87H152.37c-42.39,0-76.87-34.48-76.87-76.87V152.37
	c0-42.39,34.48-76.87,76.87-76.87h150.99c42.39,0,76.87,34.48,76.87,76.87V303.36z M303.36,108.66H152.37
	c-24.1,0-43.71,19.61-43.71,43.71v150.99c0,24.1,19.61,43.71,43.71,43.71h150.99c24.1,0,43.71-19.61,43.71-43.71V152.37
	C347.07,128.27,327.46,108.66,303.36,108.66z M227.86,306.35c-43.27,0-78.48-35.21-78.48-78.49c0-43.27,35.21-78.48,78.48-78.48
	c43.28,0,78.49,35.21,78.49,78.48C306.35,271.14,271.14,306.35,227.86,306.35z M308.87,165.61c-10.24,0-18.57-8.33-18.57-18.57
	s8.33-18.57,18.57-18.57s18.57,8.33,18.57,18.57S319.11,165.61,308.87,165.61z M227.86,182.55c-24.98,0-45.32,20.33-45.32,45.31
	c0,24.99,20.34,45.33,45.32,45.33c24.99,0,45.32-20.34,45.32-45.33C273.18,202.88,252.85,182.55,227.86,182.55z M227.86,182.55
	c-24.98,0-45.32,20.33-45.32,45.31c0,24.99,20.34,45.33,45.32,45.33c24.99,0,45.32-20.34,45.32-45.33
	C273.18,202.88,252.85,182.55,227.86,182.55z M227.86,182.55c-24.98,0-45.32,20.33-45.32,45.31c0,24.99,20.34,45.33,45.32,45.33
	c24.99,0,45.32-20.34,45.32-45.33C273.18,202.88,252.85,182.55,227.86,182.55z M303.36,108.66H152.37
	c-24.1,0-43.71,19.61-43.71,43.71v150.99c0,24.1,19.61,43.71,43.71,43.71h150.99c24.1,0,43.71-19.61,43.71-43.71V152.37
	C347.07,128.27,327.46,108.66,303.36,108.66z M227.86,306.35c-43.27,0-78.48-35.21-78.48-78.49c0-43.27,35.21-78.48,78.48-78.48
	c43.28,0,78.49,35.21,78.49,78.48C306.35,271.14,271.14,306.35,227.86,306.35z M308.87,165.61c-10.24,0-18.57-8.33-18.57-18.57
	s8.33-18.57,18.57-18.57s18.57,8.33,18.57,18.57S319.11,165.61,308.87,165.61z M227.86,182.55c-24.98,0-45.32,20.33-45.32,45.31
	c0,24.99,20.34,45.33,45.32,45.33c24.99,0,45.32-20.34,45.32-45.33C273.18,202.88,252.85,182.55,227.86,182.55z M227.86,182.55
	c-24.98,0-45.32,20.33-45.32,45.31c0,24.99,20.34,45.33,45.32,45.33c24.99,0,45.32-20.34,45.32-45.33
	C273.18,202.88,252.85,182.55,227.86,182.55z M227.86,182.55c-24.98,0-45.32,20.33-45.32,45.31c0,24.99,20.34,45.33,45.32,45.33
	c24.99,0,45.32-20.34,45.32-45.33C273.18,202.88,252.85,182.55,227.86,182.55z M303.36,108.66H152.37
	c-24.1,0-43.71,19.61-43.71,43.71v150.99c0,24.1,19.61,43.71,43.71,43.71h150.99c24.1,0,43.71-19.61,43.71-43.71V152.37
	C347.07,128.27,327.46,108.66,303.36,108.66z M227.86,306.35c-43.27,0-78.48-35.21-78.48-78.49c0-43.27,35.21-78.48,78.48-78.48
	c43.28,0,78.49,35.21,78.49,78.48C306.35,271.14,271.14,306.35,227.86,306.35z M308.87,165.61c-10.24,0-18.57-8.33-18.57-18.57
	s8.33-18.57,18.57-18.57s18.57,8.33,18.57,18.57S319.11,165.61,308.87,165.61z M227.86,182.55c-24.98,0-45.32,20.33-45.32,45.31
	c0,24.99,20.34,45.33,45.32,45.33c24.99,0,45.32-20.34,45.32-45.33C273.18,202.88,252.85,182.55,227.86,182.55z"/>
	    </g>
    </symbol>
    <symbol id="twitter" viewBox="0 0 504.4 504.4">
        <g>
		    <path d="M377.6,0.2H126.4C56.8,0.2,0,57,0,126.6v251.6c0,69.2,56.8,126,126.4,126H378c69.6,0,126.4-56.8,126.4-126.4V126.6
			C504,57,447.2,0.2,377.6,0.2z M377.2,189c0,2.8,0,5.6,0,8.4c0,84-64.8,180.8-183.6,180.8c-36.4,0-70.4-10.4-98.8-28.4
			c5.2,0.4,10,0.8,15.2,0.8c30.4,0,58-10,80-27.2c-28.4-0.4-52-18.8-60.4-44c4,0.8,8,1.2,12,1.2c6,0,12-0.8,17.2-2.4
			c-28.8-6-50.8-31.6-50.8-62.4V215c8,4.8,18.4,7.6,28.8,8c-17.2-11.2-28.8-30.8-28.8-52.8c0-11.6,3.2-22.4,8.8-32
			c32,38.4,79.2,63.6,132.8,66.4c-1.2-4.8-1.6-9.6-1.6-14.4c0-35.2,28.8-63.6,64.4-63.6c18.4,0,35.2,7.6,47.2,20
			c14.8-2.8,28.4-8,40.8-15.6c-4.8,14.8-15.2,27.2-28.4,35.2c13.2-1.6,25.6-4.8,37.2-10C400.4,169,389.6,180.2,377.2,189z"/>
	    </g>
    </symbol>

    
</svg>